<svg id="Layer_1" data-name="Layer 1" xmlns="http://www.w3.org/2000/svg" viewBox="0 0 204.05 204.03"><defs><style>.cls-1{fill:#fddb02;}.cls-2{fill:#fff;}</style></defs><path class="cls-1" d="M187.64,69.9c5.45-2,11.59.71,13.06,6.35a102,102,0,1,1-25.91-45.7c4.08,4.15,3.29,10.83-1.26,14.46s-11.15,2.82-15.33-1.23a80.9,80.9,0,1,0,22.62,39.91C179.5,78,182.19,72,187.64,69.9Z" transform="translate(0.02 -0.01)"/><path class="cls-2" d="M94.42,106.07a3.39,3.39,0,0,1,2.91-1.55,3,3,0,0,1,3.17,2.82v.24a3.1,3.1,0,0,1-3,3.17h-.14a2.86,2.86,0,0,1-3.06-2.38H87.92c.11,5,3.78,8.28,9.5,8.28a9.22,9.22,0,0,0,9.47-9v-.44a7.87,7.87,0,0,0-7.55-8.16H99a7.34,7.34,0,0,0-4.1,1.15l.46-3.17h9.83V91.46H90.37l-1.84,13.4Zm27-8.89a6.35,6.35,0,1,0-6.61,6.07h.27a6.15,6.15,0,0,0,6.28-6v-.08Zm-4.25,0A2.09,2.09,0,1,1,115,95.06a2,2,0,0,1,2.11,1.88v.22Zm17.75-5.76h-5.51L111,116.16h5.51Zm-10.37,19a6.34,6.34,0,1,0,6.59-6.08h-.26a6.12,6.12,0,0,0-6.38,5.86,1.34,1.34,0,0,0,0,.2Zm4.25,0a2.09,2.09,0,1,1,2.08,2.12,2,2,0,0,1-2.14-1.85,1.4,1.4,0,0,1,0-.29Z" transform="translate(0.02 -0.01)"/><path class="cls-2" d="M69.15,98.08c-.56,9.14,15.23,9.73,15.49.58.62-9.12-15.52-9.86-15.56-.6Z" transform="translate(0.02 -0.01)"/><path d="M74.35,98.08c0-3,5.21-3,5.11.07s-5.44,3-5.19-.09Z" transform="translate(0.02 -0.01)"/><path class="cls-2" d="M67.9,108.31c-.65,10.62,17.69,11.31,18,.67a7.07,7.07,0,0,0-2.75-6.28c-3.43-2.68-9.22-2.81-12.61-.16a7,7,0,0,0-2.72,5.75Z" transform="translate(0.02 -0.01)"/><path d="M73.94,108.31c0-3.5,6-3.42,5.94.08s-6.32,3.49-6-.1Z" transform="translate(0.02 -0.01)"/><path class="cls-2" d="M70.54,102.54" transform="translate(0.02 -0.01)"/></svg>