<?xml version="1.0" encoding="utf-8"?>
<!-- Generator: Adobe Illustrator 24.1.2, SVG Export Plug-In . SVG Version: 6.00 Build 0)  -->
<svg version="1.1" id="Layer_1" xmlns="http://www.w3.org/2000/svg" xmlns:xlink="http://www.w3.org/1999/xlink" x="0px" y="0px"
	 viewBox="0 0 204 204" style="enable-background:new 0 0 204 204;" xml:space="preserve">
<style type="text/css">
	.st0{fill:#FDDB02;}
	.st1{fill:#FFFFFF;}
</style>
<path class="st0" d="M187.6,69.9c5.4-2,11.6,0.7,13.1,6.3c14.2,54.5-18.4,110.2-72.9,124.5S17.5,182.3,3.3,127.8S21.7,17.5,76.2,3.3
	c35.4-9.2,72.9,1.2,98.5,27.2c4.1,4.2,3.3,10.8-1.3,14.5s-11.1,2.8-15.3-1.2c-32.1-31-83.4-30.1-114.4,2s-30.1,83.4,2,114.4
	s83.4,30.1,114.4-2c19-19.7,26.8-47.8,20.6-74.5C179.5,78,182.2,72,187.6,69.9z"/>
<path class="st1" d="M94.4,106.1c0.6-1,1.7-1.6,2.9-1.6c1.7-0.1,3.1,1.2,3.2,2.8c0,0.1,0,0.2,0,0.2c0,1.7-1.3,3.1-3,3.2
	c0,0-0.1,0-0.1,0c-1.5,0.1-2.8-0.9-3.1-2.4h-6.4c0.1,5,3.8,8.3,9.5,8.3c5.1,0.1,9.3-3.9,9.5-8.9c0-0.1,0-0.3,0-0.4
	c0.2-4.3-3.2-8-7.6-8.2c-0.1,0-0.2,0-0.3,0c-1.4,0-2.9,0.4-4.1,1.2l0.5-3.2h9.8v-5.6H90.4l-1.8,13.4L94.4,106.1z M121.4,97.2
	c0.1-3.5-2.6-6.5-6.1-6.6c-3.5-0.1-6.5,2.6-6.6,6.1s2.6,6.5,6.1,6.6c0.1,0,0.2,0,0.3,0C118.5,103.3,121.3,100.6,121.4,97.2
	C121.4,97.2,121.4,97.2,121.4,97.2L121.4,97.2z M117.2,97.2c0,1.2-1,2.1-2.1,2.1c-1.2,0-2.1-1-2.1-2.1c0-1.1,0.9-2,2-2.1
	c1.1-0.1,2,0.8,2.1,1.9C117.1,97,117.1,97.1,117.2,97.2L117.2,97.2z M134.9,91.4h-5.5L111,116.2h5.5L134.9,91.4z M124.5,110.4
	c-0.1,3.5,2.6,6.5,6.1,6.6s6.5-2.6,6.6-6.1c0.1-3.5-2.6-6.5-6.1-6.6c-0.1,0-0.2,0-0.3,0c-3.4-0.1-6.2,2.5-6.4,5.9
	C124.5,110.3,124.5,110.3,124.5,110.4L124.5,110.4z M128.8,110.4c0-1.2,1-2.1,2.1-2.1c1.2,0,2.1,1,2.1,2.1c0,1.1-1,2.1-2.1,2.1
	c-1.1,0.1-2.1-0.7-2.1-1.8C128.7,110.6,128.7,110.5,128.8,110.4L128.8,110.4z"/>
<g>
	<path class="st1" d="M69.2,98.1c-0.6,9.1,15.2,9.7,15.5,0.6C85.3,89.5,69.1,88.8,69.2,98.1L69.2,98.1z"/>
	<path d="M74.3,98.1c0-3,5.2-3,5.1,0.1C79.5,101.2,74,101.2,74.3,98.1L74.3,98.1z"/>
	<path class="st1" d="M77.8,101.6c-1.3,14.7-4.6,8.1-6.1,8.7c-0.7,0.3-1.5,0.3-1.8,1l-0.9,1.2c-0.1,0.2,0,1,0.1,1.2
		c1,3.2,16.4,7.8,14.7-15.2c0-0.4-0.1-0.4-0.4-0.5h-1.1C81.6,97.8,77.9,100.9,77.8,101.6z"/>
	<path class="st1" d="M70.5,102.5"/>
</g>
</svg>
