<svg id="Layer_1" data-name="Layer 1" xmlns="http://www.w3.org/2000/svg" xmlns:xlink="http://www.w3.org/1999/xlink" viewBox="0 0 204.05 204.03"><defs><style>.cls-1{fill:url(#linear-gradient);}.cls-2,.cls-4,.cls-5{stroke:#000;stroke-miterlimit:10;}.cls-2{stroke-width:0.75px;}.cls-3,.cls-5{fill:#fff;}.cls-4{stroke-width:3px;}.cls-5{stroke-width:2px;}</style><linearGradient id="linear-gradient" x1="114.43" y1="756.05" x2="149.43" y2="800.05" gradientTransform="translate(0.02 -638.01)" gradientUnits="userSpaceOnUse"><stop offset="0" stop-color="#008fee"/><stop offset="0.09" stop-color="#0889e4"/><stop offset="0.24" stop-color="#1f7acb"/><stop offset="0.43" stop-color="#4460a0"/><stop offset="0.66" stop-color="#783d66"/><stop offset="0.91" stop-color="#b9101c"/><stop offset="1" stop-color="#d10001"/></linearGradient></defs><path class="cls-1" d="M187.66,69.89c5.45-2,11.59.71,13.06,6.35a102,102,0,1,1-25.91-45.7c4.08,4.15,3.29,10.83-1.26,14.46s-11.15,2.82-15.33-1.23a80.9,80.9,0,1,0,22.62,39.91C179.52,78,182.21,72,187.66,69.89Z" transform="translate(0 0)"/><path class="cls-2" d="M94.44,104.9a3.41,3.41,0,0,1,2.91-1.55,3,3,0,0,1,3.17,2.82h0v.24a3.1,3.1,0,0,1-3,3.17h-.14a2.86,2.86,0,0,1-3.06-2.38H87.94c.11,5,3.78,8.28,9.5,8.28a9.22,9.22,0,0,0,9.47-8.94v-.45A7.84,7.84,0,0,0,99.36,98H99a7.34,7.34,0,0,0-4.1,1.15L95.38,96h9.83V90.29H90.39l-1.84,13.4Zm27-8.89a6.35,6.35,0,1,0-6.62,6.07h.28a6.15,6.15,0,0,0,6.28-6V96Zm-4.25,0A2.09,2.09,0,1,1,115,93.89a2,2,0,0,1,2.11,1.88V96Zm17.75-5.76h-5.51L111,115h5.51Zm-10.37,19a6.34,6.34,0,1,0,6.6-6.07h-.27a6.13,6.13,0,0,0-6.38,5.81v.2Zm4.25,0a2.09,2.09,0,1,1,2.08,2.12,2,2,0,0,1-2.14-1.85h0a1.41,1.41,0,0,1,0-.29Z" transform="translate(0 0)"/><circle class="cls-3" cx="76.28" cy="97.5" r="2.66"/><path class="cls-4" d="M83.47,98.22a6,6,0,1,0-6.3,5.89h.26a5.91,5.91,0,0,0,6-5.82V98.2Z" transform="translate(0 0)"/><path class="cls-4" d="M85.14,107.47a7.72,7.72,0,1,0-8,7.52h.33a7.54,7.54,0,0,0,7.64-7.43v-.11Z" transform="translate(0 0)"/><path class="cls-5" d="M73.73,107.53a3.72,3.72,0,1,1,3.77,4h0a3.78,3.78,0,0,1-3.77-3.81v-.23Z" transform="translate(0 0)"/><path class="cls-5" d="M74,98a3.43,3.43,0,1,1,3.49,3.43h0A3.38,3.38,0,0,1,74,98.21V98Z" transform="translate(0 0)"/></svg>