<svg id="Layer_1" data-name="Layer 1" xmlns="http://www.w3.org/2000/svg" xmlns:xlink="http://www.w3.org/1999/xlink" viewBox="0 0 204.05 204.03"><defs><style>.cls-1{fill:url(#linear-gradient);}</style><linearGradient id="linear-gradient" x1="114.43" y1="85.84" x2="149.43" y2="41.84" gradientTransform="matrix(1, 0, 0, -1, 0, 203.89)" gradientUnits="userSpaceOnUse"><stop offset="0" stop-color="#008fee"/><stop offset="0.09" stop-color="#0889e4"/><stop offset="0.24" stop-color="#1f7acb"/><stop offset="0.43" stop-color="#4460a0"/><stop offset="0.66" stop-color="#783d66"/><stop offset="0.91" stop-color="#b9101c"/><stop offset="1" stop-color="#d10001"/></linearGradient></defs><path class="cls-1" d="M187.64,69.9c5.45-2,11.59.71,13.06,6.35a102,102,0,1,1-25.91-45.7c4.08,4.15,3.29,10.83-1.26,14.46s-11.15,2.82-15.33-1.23a80.9,80.9,0,1,0,22.62,39.91C179.5,78,182.19,72,187.64,69.9Z" transform="translate(0.02 -0.01)"/><path d="M66.08,99.16c0,4.64,3.24,8.35,8,8.35a2.85,2.85,0,0,0,1.29-.21L69.9,115h7.63l5.54-8.82A14.23,14.23,0,0,0,85.38,99c0-5.26-4.07-9.18-9.65-9.18a9.28,9.28,0,0,0-9.64,8.9C66.08,98.87,66.08,99,66.08,99.16Zm6.34-.25a3.33,3.33,0,1,1,3.39,3.27h0A3.24,3.24,0,0,1,72.42,99Zm22,6a3.41,3.41,0,0,1,2.91-1.55,3,3,0,0,1,3.17,2.82v.24a3.1,3.1,0,0,1-3,3.17h-.14a2.86,2.86,0,0,1-3.06-2.38H87.92c.11,5,3.78,8.28,9.5,8.28a9.22,9.22,0,0,0,9.47-8.94v-.45A7.85,7.85,0,0,0,99.34,98H99a7.34,7.34,0,0,0-4.1,1.15l.46-3.17h9.83V90.3H90.37l-1.84,13.4Zm27-8.89a6.35,6.35,0,1,0-6.61,6.07h.27a6.15,6.15,0,0,0,6.28-6V96Zm-4.25,0A2.09,2.09,0,1,1,115,93.9a2,2,0,0,1,2.11,1.88V96Zm17.75-5.76h-5.51L111,115h5.51Zm-10.37,19a6.34,6.34,0,1,0,6.59-6.07h-.26A6.13,6.13,0,0,0,124.5,109a1.34,1.34,0,0,0,0,.2Zm4.25,0a2.09,2.09,0,1,1,2.08,2.12,2,2,0,0,1-2.14-1.85,1.41,1.41,0,0,1,0-.29Z" transform="translate(0.02 -0.01)"/></svg>